<svg width="32" height="30" viewBox="0 0 32 30" fill="none" xmlns="http://www.w3.org/2000/svg">
<path fill-rule="evenodd" clip-rule="evenodd" d="M4.29289 3.70711C4.68342 3.31658 5.31658 3.31658 5.70711 3.70711L26.9203 24.9203C27.3108 25.3108 27.3108 25.944 26.9203 26.3345C26.5298 26.725 25.8966 26.725 25.5061 26.3345L4.29289 5.12132C3.90237 4.7308 3.90237 4.09763 4.29289 3.70711Z" fill="#F5F7FB"/>
<path fill-rule="evenodd" clip-rule="evenodd" d="M26.9204 3.70711C26.5298 3.31658 25.8967 3.31658 25.5062 3.70711L4.29295 24.9203C3.90242 25.3108 3.90242 25.944 4.29295 26.3345C4.68347 26.725 5.31664 26.725 5.70716 26.3345L26.9204 5.12132C27.3109 4.7308 27.3109 4.09763 26.9204 3.70711Z" fill="#F5F7FB"/>
</svg>
