<svg width="32" height="30" viewBox="0 0 32 30" fill="none" xmlns="http://www.w3.org/2000/svg">
<path fill-rule="evenodd" clip-rule="evenodd" d="M4.29314 3.70711C4.68366 3.31658 5.31683 3.31658 5.70735 3.70711L26.9206 24.9203C27.3111 25.3108 27.3111 25.944 26.9206 26.3345C26.53 26.725 25.8969 26.725 25.5063 26.3345L4.29314 5.12132C3.90261 4.7308 3.90261 4.09763 4.29314 3.70711Z" fill="#131721"/>
<path fill-rule="evenodd" clip-rule="evenodd" d="M26.9202 3.70711C26.5297 3.31658 25.8966 3.31658 25.506 3.70711L4.29282 24.9203C3.9023 25.3108 3.9023 25.944 4.29282 26.3345C4.68335 26.725 5.31651 26.725 5.70704 26.3345L26.9202 5.12132C27.3108 4.7308 27.3108 4.09763 26.9202 3.70711Z" fill="#131721"/>
</svg>
